<svg width="28" height="18" viewBox="0 0 28 18" fill="none" xmlns="http://www.w3.org/2000/svg">
<path d="M1.82415 3.50821H25.538C26.0218 3.50821 26.4858 3.3448 26.8279 3.05393C27.17 2.76307 27.3622 2.36857 27.3622 1.95723C27.3622 1.54588 27.17 1.15139 26.8279 0.860521C26.4858 0.569656 26.0218 0.40625 25.538 0.40625H1.82415C1.34035 0.40625 0.876374 0.569656 0.53428 0.860521C0.192186 1.15139 0 1.54588 0 1.95723C0 2.36857 0.192186 2.76307 0.53428 3.05393C0.876374 3.3448 1.34035 3.50821 1.82415 3.50821Z" fill="black"/>
<path d="M25.538 7.38672H1.82415C1.34035 7.38672 0.876374 7.55013 0.53428 7.84099C0.192186 8.13185 0 8.52635 0 8.9377C0 9.34904 0.192186 9.74354 0.53428 10.0344C0.876374 10.3253 1.34035 10.4887 1.82415 10.4887H25.538C26.0218 10.4887 26.4858 10.3253 26.8279 10.0344C27.17 9.74354 27.3622 9.34904 27.3622 8.9377C27.3622 8.52635 27.17 8.13185 26.8279 7.84099C26.4858 7.55013 26.0218 7.38672 25.538 7.38672Z" fill="black"/>
<path d="M25.538 14.3633H1.82415C1.34035 14.3633 0.876374 14.5267 0.53428 14.8176C0.192186 15.1084 0 15.5029 0 15.9143C0 16.3256 0.192186 16.7201 0.53428 17.011C0.876374 17.3018 1.34035 17.4652 1.82415 17.4652H25.538C26.0218 17.4652 26.4858 17.3018 26.8279 17.011C27.17 16.7201 27.3622 16.3256 27.3622 15.9143C27.3622 15.5029 27.17 15.1084 26.8279 14.8176C26.4858 14.5267 26.0218 14.3633 25.538 14.3633Z" fill="black"/>
</svg>
